<?xml version="1.0" encoding="utf-8"?>
<!-- Generator: Adobe Illustrator 18.1.1, SVG Export Plug-In . SVG Version: 6.00 Build 0)  -->
<svg version="1.1" xmlns="http://www.w3.org/2000/svg" xmlns:xlink="http://www.w3.org/1999/xlink" x="0px" y="0px"
	 viewBox="0 0 360 360" enable-background="new 0 0 360 360" xml:space="preserve">
<g id="Colour">
	<circle fill="#DFDB87" cx="176" cy="181.9" r="166.5"/>
	<circle fill="#C8DAF1" cx="177" cy="176.9" r="166.5"/>
	<circle fill="#E186A3" cx="183.5" cy="180.9" r="166.5"/>
	<circle fill="#FFFFFF" cx="179" cy="179.9" r="166.5"/>
</g>
<g id="Text">
	<g>
		<path fill="#DFDB87" d="M77,145.7h-3.7V92.1h29.3v3.4H77v22.7h24.2v3.5H77V145.7z"/>
		<path fill="#DFDB87" d="M107.6,94.8c0-2.3,0.8-3.5,2.3-3.5c0.8,0,1.3,0.3,1.8,0.9c0.4,0.6,0.6,1.5,0.6,2.6c0,1.1-0.2,2-0.6,2.6
			c-0.4,0.6-1,1-1.8,1C108.4,98.4,107.6,97.2,107.6,94.8z M111.7,145.7h-3.6v-39.8h3.6V145.7z"/>
		<path fill="#DFDB87" d="M146.1,145.7v-25.8c0-4-0.8-6.9-2.5-8.7s-4.3-2.7-7.8-2.7c-4.8,0-8.2,1.2-10.5,3.6s-3.3,6.3-3.3,11.7v22
			h-3.6v-39.8h3.1l0.7,5.5h0.2c2.6-4.2,7.2-6.2,13.8-6.2c9,0,13.5,4.8,13.5,14.5v26H146.1z"/>
		<path fill="#DFDB87" d="M184.8,145.7v-25.8c0-4-0.8-6.9-2.5-8.7c-1.7-1.8-4.3-2.7-7.8-2.7c-4.8,0-8.2,1.2-10.5,3.6
			s-3.3,6.3-3.3,11.7v22H157v-39.8h3.1l0.7,5.5h0.2c2.6-4.2,7.2-6.2,13.8-6.2c9,0,13.5,4.8,13.5,14.5v26H184.8z"/>
		<path fill="#DFDB87" d="M112,206.7h-3.8v-26.3H77v26.3h-3.7v-53.5H77v23.8h31.3v-23.8h3.8V206.7z"/>
		<path fill="#DFDB87" d="M151.4,186.7c0,6.5-1.6,11.6-4.7,15.2s-7.5,5.5-13,5.5c-3.5,0-6.6-0.8-9.2-2.5c-2.7-1.7-4.7-4.1-6.1-7.3
			c-1.4-3.2-2.1-6.8-2.1-10.9c0-6.5,1.6-11.6,4.7-15.2c3.1-3.6,7.5-5.4,13-5.4c5.5,0,9.8,1.8,12.9,5.5
			C149.8,175.3,151.4,180.3,151.4,186.7z M120,186.7c0,5.5,1.2,9.7,3.6,12.8s5.8,4.6,10.2,4.6s7.8-1.5,10.2-4.6
			c2.4-3.1,3.6-7.3,3.6-12.8c0-5.5-1.2-9.8-3.6-12.8c-2.4-3-5.8-4.5-10.2-4.5s-7.8,1.5-10.2,4.5C121.2,176.9,120,181.2,120,186.7z"
			/>
		<path fill="#DFDB87" d="M172.5,166.1c2.9,0,5.4,0.5,7.5,1.6c2.1,1,4,2.8,5.6,5.4h0.2c-0.1-3.1-0.2-6.1-0.2-9v-14.3h3.6v57h-2.4
			l-0.9-6.1h-0.3c-3,4.5-7.4,6.8-13,6.8c-5.5,0-9.7-1.7-12.6-5.1c-2.9-3.4-4.4-8.4-4.4-14.9c0-6.9,1.4-12.1,4.3-15.8
			C162.8,167.9,167,166.1,172.5,166.1z M172.5,169.4c-4.3,0-7.6,1.5-9.8,4.6c-2.2,3.1-3.3,7.5-3.3,13.3c0,11.3,4.4,16.9,13.1,16.9
			c4.5,0,7.8-1.3,9.9-3.9s3.1-6.9,3.1-12.9v-0.6c0-6.2-1-10.6-3.1-13.3S177.1,169.4,172.5,169.4z"/>
		<path fill="#DFDB87" d="M227.8,166.9v2.5l-8.2,0.5c2.2,2.7,3.3,5.7,3.3,9c0,3.8-1.3,6.9-3.8,9.3c-2.6,2.4-6,3.6-10.3,3.6
			c-1.8,0-3.1-0.1-3.8-0.2c-1.4,0.8-2.5,1.6-3.3,2.7s-1.1,2.1-1.1,3.3c0,1.3,0.5,2.2,1.4,2.8c1,0.6,2.6,0.9,4.9,0.9h7
			c4.3,0,7.6,0.9,9.9,2.6c2.3,1.7,3.4,4.3,3.4,7.7c0,4.2-1.7,7.4-5.1,9.7c-3.4,2.3-8.3,3.4-14.6,3.4c-5,0-8.9-1-11.6-2.9
			c-2.7-1.9-4.1-4.6-4.1-8.1c0-2.7,0.8-5,2.5-6.8c1.7-1.8,4-3,6.9-3.7c-1.2-0.5-2.2-1.2-2.9-2.2c-0.7-0.9-1.1-2-1.1-3.2
			c0-2.7,1.7-5,5.1-7c-2.3-1-4.1-2.4-5.4-4.5c-1.3-2-1.9-4.4-1.9-7c0-4,1.3-7.2,3.8-9.6c2.5-2.4,5.9-3.6,10.2-3.6
			c2.6,0,4.6,0.3,6.1,0.8H227.8z M195.6,213.4c0,5.5,4.1,8.2,12.2,8.2c10.4,0,15.7-3.3,15.7-10c0-2.4-0.8-4.1-2.5-5.2
			c-1.6-1.1-4.3-1.6-7.9-1.6h-6.5C199.3,204.8,195.6,207.7,195.6,213.4z M198.7,179.3c0,3.1,0.9,5.5,2.8,7.2
			c1.9,1.7,4.4,2.5,7.5,2.5c3.3,0,5.9-0.8,7.6-2.5c1.8-1.7,2.7-4.1,2.7-7.3c0-3.4-0.9-5.9-2.7-7.6c-1.8-1.7-4.4-2.5-7.6-2.5
			c-3.2,0-5.7,0.9-7.5,2.7S198.7,176,198.7,179.3z"/>
		<path fill="#DFDB87" d="M235.4,189.2l20.3-22.3h4.4l-15.7,17l17,22.8h-4.4l-15.1-20.1l-6.5,5.9v14.2h-3.6v-57h3.6v28.6l-0.3,10.9
			H235.4z"/>
		<path fill="#DFDB87" d="M263.4,155.8c0-2.3,0.8-3.5,2.3-3.5c0.8,0,1.3,0.3,1.8,0.9c0.4,0.6,0.6,1.5,0.6,2.6c0,1.1-0.2,2-0.6,2.6
			c-0.4,0.6-1,1-1.8,1C264.2,159.4,263.4,158.2,263.4,155.8z M267.5,206.7h-3.6v-39.8h3.6V206.7z"/>
		<path fill="#DFDB87" d="M302.5,206.7v-25.8c0-4-0.8-6.9-2.5-8.7c-1.7-1.8-4.3-2.7-7.8-2.7c-4.8,0-8.2,1.2-10.5,3.6
			s-3.3,6.3-3.3,11.7v22h-3.6v-39.8h3.1l0.7,5.5h0.2c2.6-4.2,7.2-6.2,13.8-6.2c9,0,13.5,4.8,13.5,14.5v26H302.5z"/>
		<path fill="#DFDB87" d="M113.9,242.4c0,9-2.4,15.8-7.1,20.4c-4.7,4.6-11.6,6.9-20.8,6.9H73.2v-53.5h14.5c8.5,0,15,2.2,19.5,6.7
			C111.7,227.3,113.9,233.8,113.9,242.4z M109.8,242.5c0-7.7-1.9-13.4-5.8-17.3c-3.9-3.9-9.6-5.8-17.2-5.8H77v46.9h8.9
			C101.8,266.4,109.8,258.4,109.8,242.5z"/>
		<path fill="#DFDB87" d="M136,270.4c-5.8,0-10.3-1.8-13.5-5.3s-4.9-8.6-4.9-15c0-6.3,1.6-11.4,4.7-15.3c3.1-3.8,7.3-5.7,12.6-5.7
			c4.7,0,8.4,1.6,11.1,4.9s4.1,7.7,4.1,13.3v2.9h-28.7c0,5.5,1.3,9.6,3.8,12.5s6.1,4.3,10.7,4.3c2.3,0,4.3-0.2,6-0.5
			c1.7-0.3,3.9-1,6.5-2.1v3.3c-2.2,1-4.3,1.6-6.2,2S138.3,270.4,136,270.4z M134.9,232.3c-3.8,0-6.9,1.3-9.2,3.8
			c-2.3,2.5-3.7,6.2-4.1,10.9h24.6c0-4.6-1-8.2-3-10.8C141.2,233.6,138.4,232.3,134.9,232.3z"/>
		<path fill="#DFDB87" d="M181.2,259.3c0,3.6-1.4,6.3-4.1,8.2c-2.7,1.9-6.6,2.9-11.5,2.9c-5.3,0-9.5-0.8-12.7-2.5V264
			c4,2,8.2,3,12.7,3c3.9,0,6.9-0.7,9-2c2-1.3,3.1-3,3.1-5.2c0-2-0.8-3.7-2.4-5.1c-1.6-1.4-4.3-2.7-8-4c-4-1.4-6.8-2.7-8.4-3.7
			s-2.8-2.2-3.6-3.5c-0.8-1.3-1.2-2.9-1.2-4.8c0-3,1.3-5.3,3.8-7.1c2.5-1.7,6-2.6,10.5-2.6c4.3,0,8.4,0.8,12.2,2.4l-1.4,3.3
			c-3.9-1.6-7.5-2.4-10.9-2.4c-3.2,0-5.8,0.5-7.7,1.6s-2.9,2.6-2.9,4.5c0,2.1,0.7,3.7,2.2,5s4.4,2.6,8.7,4.2
			c3.6,1.3,6.2,2.5,7.8,3.5c1.6,1,2.9,2.2,3.7,3.5C180.8,256,181.2,257.5,181.2,259.3z"/>
		<path fill="#DFDB87" d="M185.4,218.8c0-2.3,0.8-3.5,2.3-3.5c0.8,0,1.3,0.3,1.8,0.9s0.6,1.5,0.6,2.6c0,1.1-0.2,2-0.6,2.6
			s-1,1-1.8,1C186.2,222.4,185.4,221.2,185.4,218.8z M189.6,269.7h-3.6v-39.8h3.6V269.7z"/>
		<path fill="#DFDB87" d="M227.1,229.9v2.5l-8.2,0.5c2.2,2.7,3.3,5.7,3.3,9c0,3.8-1.3,6.9-3.8,9.3c-2.6,2.4-6,3.6-10.3,3.6
			c-1.8,0-3.1-0.1-3.8-0.2c-1.4,0.8-2.5,1.6-3.3,2.7s-1.1,2.1-1.1,3.3c0,1.3,0.5,2.2,1.4,2.8c1,0.6,2.6,0.9,4.9,0.9h7
			c4.3,0,7.6,0.9,9.9,2.6c2.3,1.7,3.4,4.3,3.4,7.7c0,4.2-1.7,7.4-5.1,9.7c-3.4,2.3-8.3,3.4-14.6,3.4c-5,0-8.9-1-11.6-2.9
			c-2.7-1.9-4.1-4.6-4.1-8.1c0-2.7,0.8-5,2.5-6.8c1.7-1.8,4-3,6.9-3.7c-1.2-0.5-2.2-1.2-2.9-2.2c-0.7-0.9-1.1-2-1.1-3.2
			c0-2.7,1.7-5,5.1-7c-2.3-1-4.1-2.4-5.4-4.5c-1.3-2-1.9-4.4-1.9-7c0-4,1.3-7.2,3.8-9.6c2.5-2.4,5.9-3.6,10.2-3.6
			c2.6,0,4.6,0.3,6.1,0.8H227.1z M194.9,276.4c0,5.5,4.1,8.2,12.2,8.2c10.4,0,15.7-3.3,15.7-10c0-2.4-0.8-4.1-2.5-5.2
			c-1.6-1.1-4.3-1.6-7.9-1.6h-6.5C198.5,267.8,194.9,270.7,194.9,276.4z M197.9,242.3c0,3.1,0.9,5.5,2.8,7.2
			c1.9,1.7,4.4,2.5,7.5,2.5c3.3,0,5.9-0.8,7.6-2.5c1.8-1.7,2.7-4.1,2.7-7.3c0-3.4-0.9-5.9-2.7-7.6c-1.8-1.7-4.4-2.5-7.6-2.5
			c-3.2,0-5.7,0.9-7.5,2.7S197.9,239,197.9,242.3z"/>
		<path fill="#DFDB87" d="M259.4,269.7v-25.8c0-4-0.8-6.9-2.5-8.7c-1.7-1.8-4.3-2.7-7.8-2.7c-4.8,0-8.2,1.2-10.5,3.6
			s-3.3,6.3-3.3,11.7v22h-3.6v-39.8h3.1l0.7,5.5h0.2c2.6-4.2,7.2-6.2,13.8-6.2c9,0,13.5,4.8,13.5,14.5v26H259.4z"/>
	</g>
	<g>
		<path fill="#E186A3" d="M78.2,144.7h-3.7V91.1h29.3v3.4H78.2v22.7h24.2v3.5H78.2V144.7z"/>
		<path fill="#E186A3" d="M108.9,93.8c0-2.3,0.8-3.5,2.3-3.5c0.8,0,1.3,0.3,1.8,0.9c0.4,0.6,0.6,1.5,0.6,2.6c0,1.1-0.2,2-0.6,2.6
			c-0.4,0.6-1,1-1.8,1C109.6,97.4,108.9,96.2,108.9,93.8z M113,144.7h-3.6v-39.8h3.6V144.7z"/>
		<path fill="#E186A3" d="M147.4,144.7v-25.8c0-4-0.8-6.9-2.5-8.7s-4.3-2.7-7.8-2.7c-4.8,0-8.2,1.2-10.5,3.6s-3.3,6.3-3.3,11.7v22
			h-3.6v-39.8h3.1l0.7,5.5h0.2c2.6-4.2,7.2-6.2,13.8-6.2c9,0,13.5,4.8,13.5,14.5v26H147.4z"/>
		<path fill="#E186A3" d="M186,144.7v-25.8c0-4-0.8-6.9-2.5-8.7c-1.7-1.8-4.3-2.7-7.8-2.7c-4.8,0-8.2,1.2-10.5,3.6
			s-3.3,6.3-3.3,11.7v22h-3.6v-39.8h3.1l0.7,5.5h0.2c2.6-4.2,7.2-6.2,13.8-6.2c9,0,13.6,4.8,13.6,14.5v26H186z"/>
		<path fill="#E186A3" d="M113.3,205.7h-3.8v-26.3H78.2v26.3h-3.7v-53.5h3.7v23.8h31.3v-23.8h3.8V205.7z"/>
		<path fill="#E186A3" d="M152.7,185.7c0,6.5-1.6,11.6-4.7,15.2s-7.5,5.5-13,5.5c-3.5,0-6.6-0.8-9.2-2.5c-2.7-1.7-4.7-4.1-6.1-7.3
			c-1.4-3.2-2.1-6.8-2.1-10.9c0-6.5,1.6-11.6,4.7-15.2c3.1-3.6,7.5-5.4,13-5.4c5.5,0,9.8,1.8,12.9,5.5
			C151.1,174.3,152.7,179.3,152.7,185.7z M121.2,185.7c0,5.5,1.2,9.7,3.6,12.8s5.8,4.6,10.2,4.6s7.8-1.5,10.2-4.6
			c2.4-3.1,3.6-7.3,3.6-12.8c0-5.5-1.2-9.8-3.6-12.8c-2.4-3-5.8-4.5-10.2-4.5s-7.8,1.5-10.2,4.5
			C122.4,175.9,121.2,180.2,121.2,185.7z"/>
		<path fill="#E186A3" d="M173.8,165.1c2.9,0,5.4,0.5,7.5,1.6c2.1,1,4,2.8,5.6,5.4h0.2c-0.1-3.1-0.2-6.1-0.2-9v-14.3h3.6v57h-2.4
			l-0.9-6.1h-0.3c-3,4.5-7.4,6.8-13,6.8c-5.5,0-9.7-1.7-12.6-5.1c-2.9-3.4-4.4-8.4-4.4-14.9c0-6.9,1.4-12.1,4.3-15.8
			C164.1,166.9,168.3,165.1,173.8,165.1z M173.8,168.4c-4.3,0-7.6,1.5-9.8,4.6c-2.2,3.1-3.3,7.5-3.3,13.3c0,11.3,4.4,16.9,13.1,16.9
			c4.5,0,7.8-1.3,9.9-3.9s3.1-6.9,3.1-12.9v-0.6c0-6.2-1-10.6-3.1-13.3C181.7,169.7,178.4,168.4,173.8,168.4z"/>
		<path fill="#E186A3" d="M229.1,165.9v2.5l-8.2,0.5c2.2,2.7,3.3,5.7,3.3,9c0,3.8-1.3,6.9-3.8,9.3c-2.6,2.4-6,3.6-10.3,3.6
			c-1.8,0-3.1-0.1-3.8-0.2c-1.4,0.8-2.5,1.6-3.3,2.7s-1.1,2.1-1.1,3.3c0,1.3,0.5,2.2,1.4,2.8c1,0.6,2.6,0.9,4.9,0.9h7
			c4.3,0,7.6,0.9,9.9,2.6c2.3,1.7,3.4,4.3,3.4,7.7c0,4.2-1.7,7.4-5.1,9.7c-3.4,2.3-8.3,3.4-14.6,3.4c-5,0-8.9-1-11.6-2.9
			c-2.7-1.9-4.1-4.6-4.1-8.1c0-2.7,0.8-5,2.5-6.8c1.7-1.8,4-3,6.9-3.7c-1.2-0.5-2.2-1.2-2.9-2.2c-0.7-0.9-1.1-2-1.1-3.2
			c0-2.7,1.7-5,5.1-7c-2.3-1-4.1-2.4-5.4-4.5c-1.3-2-1.9-4.4-1.9-7c0-4,1.3-7.2,3.8-9.6c2.5-2.4,5.9-3.6,10.2-3.6
			c2.6,0,4.6,0.3,6.1,0.8H229.1z M196.9,212.4c0,5.5,4.1,8.2,12.2,8.2c10.4,0,15.7-3.3,15.7-10c0-2.4-0.8-4.1-2.5-5.2
			c-1.6-1.1-4.3-1.6-7.9-1.6h-6.5C200.5,203.8,196.9,206.7,196.9,212.4z M199.9,178.3c0,3.1,0.9,5.5,2.8,7.2
			c1.9,1.7,4.4,2.5,7.5,2.5c3.3,0,5.9-0.8,7.6-2.5c1.8-1.7,2.7-4.1,2.7-7.3c0-3.4-0.9-5.9-2.7-7.6c-1.8-1.7-4.4-2.5-7.6-2.5
			c-3.2,0-5.7,0.9-7.5,2.7S199.9,175,199.9,178.3z"/>
		<path fill="#E186A3" d="M236.6,188.2l20.3-22.3h4.4l-15.7,17l17,22.8h-4.4l-15.1-20.1l-6.5,5.9v14.2h-3.6v-57h3.6v28.6l-0.3,10.9
			H236.6z"/>
		<path fill="#E186A3" d="M264.6,154.8c0-2.3,0.8-3.5,2.3-3.5c0.8,0,1.3,0.3,1.8,0.9c0.4,0.6,0.6,1.5,0.6,2.6c0,1.1-0.2,2-0.6,2.6
			c-0.4,0.6-1,1-1.8,1C265.4,158.4,264.6,157.2,264.6,154.8z M268.8,205.7h-3.6v-39.8h3.6V205.7z"/>
		<path fill="#E186A3" d="M303.8,205.7v-25.8c0-4-0.8-6.9-2.5-8.7c-1.7-1.8-4.3-2.7-7.8-2.7c-4.8,0-8.2,1.2-10.5,3.6
			s-3.3,6.3-3.3,11.7v22H276v-39.8h3.1l0.7,5.5h0.2c2.6-4.2,7.2-6.2,13.8-6.2c9,0,13.5,4.8,13.5,14.5v26H303.8z"/>
		<path fill="#E186A3" d="M115.2,241.4c0,9-2.4,15.8-7.1,20.4c-4.7,4.6-11.6,6.9-20.8,6.9H74.5v-53.5H89c8.5,0,15,2.2,19.5,6.7
			C112.9,226.3,115.2,232.8,115.2,241.4z M111.1,241.5c0-7.7-1.9-13.4-5.8-17.3c-3.9-3.9-9.6-5.8-17.2-5.8h-9.9v46.9h8.9
			C103.1,265.4,111.1,257.4,111.1,241.5z"/>
		<path fill="#E186A3" d="M137.2,269.4c-5.8,0-10.3-1.8-13.5-5.3s-4.9-8.6-4.9-15c0-6.3,1.6-11.4,4.7-15.3c3.1-3.8,7.3-5.7,12.6-5.7
			c4.7,0,8.4,1.6,11.1,4.9s4.1,7.7,4.1,13.3v2.9h-28.7c0,5.5,1.3,9.6,3.8,12.5s6.1,4.3,10.7,4.3c2.3,0,4.3-0.2,6-0.5
			c1.7-0.3,3.9-1,6.5-2.1v3.3c-2.2,1-4.3,1.6-6.2,2S139.5,269.4,137.2,269.4z M136.2,231.3c-3.8,0-6.9,1.3-9.2,3.8
			c-2.3,2.5-3.7,6.2-4.1,10.9h24.6c0-4.6-1-8.2-3-10.8C142.5,232.6,139.7,231.3,136.2,231.3z"/>
		<path fill="#E186A3" d="M182.5,258.3c0,3.6-1.4,6.3-4.1,8.2c-2.7,1.9-6.6,2.9-11.5,2.9c-5.3,0-9.5-0.8-12.7-2.5V263
			c4,2,8.2,3,12.7,3c3.9,0,6.9-0.7,9-2c2-1.3,3.1-3,3.1-5.2c0-2-0.8-3.7-2.4-5.1s-4.3-2.7-8-4c-4-1.4-6.8-2.7-8.4-3.7
			s-2.8-2.2-3.6-3.5c-0.8-1.3-1.2-2.9-1.2-4.8c0-3,1.3-5.3,3.8-7.1c2.5-1.7,6-2.6,10.5-2.6c4.3,0,8.4,0.8,12.2,2.4l-1.4,3.3
			c-3.9-1.6-7.5-2.4-10.9-2.4c-3.2,0-5.8,0.5-7.7,1.6s-2.9,2.6-2.9,4.5c0,2.1,0.7,3.7,2.2,5s4.4,2.6,8.7,4.2
			c3.6,1.3,6.2,2.5,7.8,3.5c1.6,1,2.9,2.2,3.7,3.5S182.5,256.5,182.5,258.3z"/>
		<path fill="#E186A3" d="M186.7,217.8c0-2.3,0.8-3.5,2.3-3.5c0.8,0,1.3,0.3,1.8,0.9s0.6,1.5,0.6,2.6c0,1.1-0.2,2-0.6,2.6
			s-1,1-1.8,1C187.5,221.4,186.7,220.2,186.7,217.8z M190.8,268.7h-3.6v-39.8h3.6V268.7z"/>
		<path fill="#E186A3" d="M228.4,228.9v2.5l-8.2,0.5c2.2,2.7,3.3,5.7,3.3,9c0,3.8-1.3,6.9-3.8,9.3c-2.6,2.4-6,3.6-10.3,3.6
			c-1.8,0-3.1-0.1-3.8-0.2c-1.4,0.8-2.5,1.6-3.3,2.7s-1.1,2.1-1.1,3.3c0,1.3,0.5,2.2,1.4,2.8c1,0.6,2.6,0.9,4.9,0.9h7
			c4.3,0,7.6,0.9,9.9,2.6c2.3,1.7,3.4,4.3,3.4,7.7c0,4.2-1.7,7.4-5.1,9.7c-3.4,2.3-8.3,3.4-14.6,3.4c-5,0-8.9-1-11.6-2.9
			c-2.7-1.9-4.1-4.6-4.1-8.1c0-2.7,0.8-5,2.5-6.8c1.7-1.8,4-3,6.9-3.7c-1.2-0.5-2.2-1.2-2.9-2.2c-0.7-0.9-1.1-2-1.1-3.2
			c0-2.7,1.7-5,5.1-7c-2.3-1-4.1-2.4-5.4-4.5c-1.3-2-1.9-4.4-1.9-7c0-4,1.3-7.2,3.8-9.6c2.5-2.4,5.9-3.6,10.2-3.6
			c2.6,0,4.6,0.3,6.1,0.8H228.4z M196.2,275.4c0,5.5,4.1,8.2,12.2,8.2c10.4,0,15.7-3.3,15.7-10c0-2.4-0.8-4.1-2.5-5.2
			c-1.6-1.1-4.3-1.6-7.9-1.6h-6.5C199.8,266.8,196.2,269.7,196.2,275.4z M199.2,241.3c0,3.1,0.9,5.5,2.8,7.2
			c1.9,1.7,4.4,2.5,7.5,2.5c3.3,0,5.9-0.8,7.6-2.5c1.8-1.7,2.7-4.1,2.7-7.3c0-3.4-0.9-5.9-2.7-7.6c-1.8-1.7-4.4-2.5-7.6-2.5
			c-3.2,0-5.7,0.9-7.5,2.7S199.2,238,199.2,241.3z"/>
		<path fill="#E186A3" d="M260.6,268.7v-25.8c0-4-0.8-6.9-2.5-8.7c-1.7-1.8-4.3-2.7-7.8-2.7c-4.8,0-8.2,1.2-10.5,3.6
			s-3.3,6.3-3.3,11.7v22h-3.6v-39.8h3.1l0.7,5.5h0.2c2.6-4.2,7.2-6.2,13.8-6.2c9,0,13.5,4.8,13.5,14.5v26H260.6z"/>
	</g>
	<g>
		<path fill="#C8DAF1" d="M77,142.7h-3.7V89.1h29.3v3.4H77v22.7h24.2v3.5H77V142.7z"/>
		<path fill="#C8DAF1" d="M107.6,91.8c0-2.3,0.8-3.5,2.3-3.5c0.8,0,1.3,0.3,1.8,0.9c0.4,0.6,0.6,1.5,0.6,2.6c0,1.1-0.2,2-0.6,2.6
			c-0.4,0.6-1,1-1.8,1C108.4,95.4,107.6,94.2,107.6,91.8z M111.7,142.7h-3.6v-39.8h3.6V142.7z"/>
		<path fill="#C8DAF1" d="M146.1,142.7v-25.8c0-4-0.8-6.9-2.5-8.7s-4.3-2.7-7.8-2.7c-4.8,0-8.2,1.2-10.5,3.6s-3.3,6.3-3.3,11.7v22
			h-3.6v-39.8h3.1l0.7,5.5h0.2c2.6-4.2,7.2-6.2,13.8-6.2c9,0,13.5,4.8,13.5,14.5v26H146.1z"/>
		<path fill="#C8DAF1" d="M184.8,142.7v-25.8c0-4-0.8-6.9-2.5-8.7c-1.7-1.8-4.3-2.7-7.8-2.7c-4.8,0-8.2,1.2-10.5,3.6
			s-3.3,6.3-3.3,11.7v22H157v-39.8h3.1l0.7,5.5h0.2c2.6-4.2,7.2-6.2,13.8-6.2c9,0,13.5,4.8,13.5,14.5v26H184.8z"/>
		<path fill="#C8DAF1" d="M112,203.7h-3.8v-26.3H77v26.3h-3.7v-53.5H77v23.8h31.3v-23.8h3.8V203.7z"/>
		<path fill="#C8DAF1" d="M151.4,183.7c0,6.5-1.6,11.6-4.7,15.2s-7.5,5.5-13,5.5c-3.5,0-6.6-0.8-9.2-2.5c-2.7-1.7-4.7-4.1-6.1-7.3
			c-1.4-3.2-2.1-6.8-2.1-10.9c0-6.5,1.6-11.6,4.7-15.2c3.1-3.6,7.5-5.4,13-5.4c5.5,0,9.8,1.8,12.9,5.5
			C149.8,172.3,151.4,177.3,151.4,183.7z M120,183.7c0,5.5,1.2,9.7,3.6,12.8s5.8,4.6,10.2,4.6s7.8-1.5,10.2-4.6
			c2.4-3.1,3.6-7.3,3.6-12.8c0-5.5-1.2-9.8-3.6-12.8c-2.4-3-5.8-4.5-10.2-4.5s-7.8,1.5-10.2,4.5C121.2,173.9,120,178.2,120,183.7z"
			/>
		<path fill="#C8DAF1" d="M172.5,163.1c2.9,0,5.4,0.5,7.5,1.6c2.1,1,4,2.8,5.6,5.4h0.2c-0.1-3.1-0.2-6.1-0.2-9v-14.3h3.6v57h-2.4
			l-0.9-6.1h-0.3c-3,4.5-7.4,6.8-13,6.8c-5.5,0-9.7-1.7-12.6-5.1c-2.9-3.4-4.4-8.4-4.4-14.9c0-6.9,1.4-12.1,4.3-15.8
			C162.8,164.9,167,163.1,172.5,163.1z M172.5,166.4c-4.3,0-7.6,1.5-9.8,4.6c-2.2,3.1-3.3,7.5-3.3,13.3c0,11.3,4.4,16.9,13.1,16.9
			c4.5,0,7.8-1.3,9.9-3.9s3.1-6.9,3.1-12.9v-0.6c0-6.2-1-10.6-3.1-13.3S177.1,166.4,172.5,166.4z"/>
		<path fill="#C8DAF1" d="M227.8,163.9v2.5l-8.2,0.5c2.2,2.7,3.3,5.7,3.3,9c0,3.8-1.3,6.9-3.8,9.3c-2.6,2.4-6,3.6-10.3,3.6
			c-1.8,0-3.1-0.1-3.8-0.2c-1.4,0.8-2.5,1.6-3.3,2.7s-1.1,2.1-1.1,3.3c0,1.3,0.5,2.2,1.4,2.8c1,0.6,2.6,0.9,4.9,0.9h7
			c4.3,0,7.6,0.9,9.9,2.6c2.3,1.7,3.4,4.3,3.4,7.7c0,4.2-1.7,7.4-5.1,9.7c-3.4,2.3-8.3,3.4-14.6,3.4c-5,0-8.9-1-11.6-2.9
			c-2.7-1.9-4.1-4.6-4.1-8.1c0-2.7,0.8-5,2.5-6.8c1.7-1.8,4-3,6.9-3.7c-1.2-0.5-2.2-1.2-2.9-2.2c-0.7-0.9-1.1-2-1.1-3.2
			c0-2.7,1.7-5,5.1-7c-2.3-1-4.1-2.4-5.4-4.5c-1.3-2-1.9-4.4-1.9-7c0-4,1.3-7.2,3.8-9.6c2.5-2.4,5.9-3.6,10.2-3.6
			c2.6,0,4.6,0.3,6.1,0.8H227.8z M195.6,210.4c0,5.5,4.1,8.2,12.2,8.2c10.4,0,15.7-3.3,15.7-10c0-2.4-0.8-4.1-2.5-5.2
			c-1.6-1.1-4.3-1.6-7.9-1.6h-6.5C199.3,201.8,195.6,204.7,195.6,210.4z M198.7,176.3c0,3.1,0.9,5.5,2.8,7.2
			c1.9,1.7,4.4,2.5,7.5,2.5c3.3,0,5.9-0.8,7.6-2.5c1.8-1.7,2.7-4.1,2.7-7.3c0-3.4-0.9-5.9-2.7-7.6c-1.8-1.7-4.4-2.5-7.6-2.5
			c-3.2,0-5.7,0.9-7.5,2.7S198.7,173,198.7,176.3z"/>
		<path fill="#C8DAF1" d="M235.4,186.2l20.3-22.3h4.4l-15.7,17l17,22.8h-4.4l-15.1-20.1l-6.5,5.9v14.2h-3.6v-57h3.6v28.6l-0.3,10.9
			H235.4z"/>
		<path fill="#C8DAF1" d="M263.4,152.8c0-2.3,0.8-3.5,2.3-3.5c0.8,0,1.3,0.3,1.8,0.9c0.4,0.6,0.6,1.5,0.6,2.6c0,1.1-0.2,2-0.6,2.6
			c-0.4,0.6-1,1-1.8,1C264.2,156.4,263.4,155.2,263.4,152.8z M267.5,203.7h-3.6v-39.8h3.6V203.7z"/>
		<path fill="#C8DAF1" d="M302.5,203.7v-25.8c0-4-0.8-6.9-2.5-8.7c-1.7-1.8-4.3-2.7-7.8-2.7c-4.8,0-8.2,1.2-10.5,3.6
			s-3.3,6.3-3.3,11.7v22h-3.6v-39.8h3.1l0.7,5.5h0.2c2.6-4.2,7.2-6.2,13.8-6.2c9,0,13.5,4.8,13.5,14.5v26H302.5z"/>
		<path fill="#C8DAF1" d="M113.9,239.4c0,9-2.4,15.8-7.1,20.4c-4.7,4.6-11.6,6.9-20.8,6.9H73.2v-53.5h14.5c8.5,0,15,2.2,19.5,6.7
			C111.7,224.3,113.9,230.8,113.9,239.4z M109.8,239.5c0-7.7-1.9-13.4-5.8-17.3c-3.9-3.9-9.6-5.8-17.2-5.8H77v46.9h8.9
			C101.8,263.4,109.8,255.4,109.8,239.5z"/>
		<path fill="#C8DAF1" d="M136,267.4c-5.8,0-10.3-1.8-13.5-5.3s-4.9-8.6-4.9-15c0-6.3,1.6-11.4,4.7-15.3c3.1-3.8,7.3-5.7,12.6-5.7
			c4.7,0,8.4,1.6,11.1,4.9s4.1,7.7,4.1,13.3v2.9h-28.7c0,5.5,1.3,9.6,3.8,12.5s6.1,4.3,10.7,4.3c2.3,0,4.3-0.2,6-0.5
			c1.7-0.3,3.9-1,6.5-2.1v3.3c-2.2,1-4.3,1.6-6.2,2S138.3,267.4,136,267.4z M134.9,229.3c-3.8,0-6.9,1.3-9.2,3.8
			c-2.3,2.5-3.7,6.2-4.1,10.9h24.6c0-4.6-1-8.2-3-10.8C141.2,230.6,138.4,229.3,134.9,229.3z"/>
		<path fill="#C8DAF1" d="M181.2,256.3c0,3.6-1.4,6.3-4.1,8.2c-2.7,1.9-6.6,2.9-11.5,2.9c-5.3,0-9.5-0.8-12.7-2.5V261
			c4,2,8.2,3,12.7,3c3.9,0,6.9-0.7,9-2c2-1.3,3.1-3,3.1-5.2c0-2-0.8-3.7-2.4-5.1c-1.6-1.4-4.3-2.7-8-4c-4-1.4-6.8-2.7-8.4-3.7
			s-2.8-2.2-3.6-3.5c-0.8-1.3-1.2-2.9-1.2-4.8c0-3,1.3-5.3,3.8-7.1c2.5-1.7,6-2.6,10.5-2.6c4.3,0,8.4,0.8,12.2,2.4l-1.4,3.3
			c-3.9-1.6-7.5-2.4-10.9-2.4c-3.2,0-5.8,0.5-7.7,1.6s-2.9,2.6-2.9,4.5c0,2.1,0.7,3.7,2.2,5s4.4,2.6,8.7,4.2
			c3.6,1.3,6.2,2.5,7.8,3.5c1.6,1,2.9,2.2,3.7,3.5C180.8,253,181.2,254.5,181.2,256.3z"/>
		<path fill="#C8DAF1" d="M185.4,215.8c0-2.3,0.8-3.5,2.3-3.5c0.8,0,1.3,0.3,1.8,0.9s0.6,1.5,0.6,2.6c0,1.1-0.2,2-0.6,2.6
			s-1,1-1.8,1C186.2,219.4,185.4,218.2,185.4,215.8z M189.6,266.7h-3.6v-39.8h3.6V266.7z"/>
		<path fill="#C8DAF1" d="M227.1,226.9v2.5l-8.2,0.5c2.2,2.7,3.3,5.7,3.3,9c0,3.8-1.3,6.9-3.8,9.3c-2.6,2.4-6,3.6-10.3,3.6
			c-1.8,0-3.1-0.1-3.8-0.2c-1.4,0.8-2.5,1.6-3.3,2.7s-1.1,2.1-1.1,3.3c0,1.3,0.5,2.2,1.4,2.8c1,0.6,2.6,0.9,4.9,0.9h7
			c4.3,0,7.6,0.9,9.9,2.6c2.3,1.7,3.4,4.3,3.4,7.7c0,4.2-1.7,7.4-5.1,9.7c-3.4,2.3-8.3,3.4-14.6,3.4c-5,0-8.9-1-11.6-2.9
			c-2.7-1.9-4.1-4.6-4.1-8.1c0-2.7,0.8-5,2.5-6.8c1.7-1.8,4-3,6.9-3.7c-1.2-0.5-2.2-1.2-2.9-2.2c-0.7-0.9-1.1-2-1.1-3.2
			c0-2.7,1.7-5,5.1-7c-2.3-1-4.1-2.4-5.4-4.5c-1.3-2-1.9-4.4-1.9-7c0-4,1.3-7.2,3.8-9.6c2.5-2.4,5.9-3.6,10.2-3.6
			c2.6,0,4.6,0.3,6.1,0.8H227.1z M194.9,273.4c0,5.5,4.1,8.2,12.2,8.2c10.4,0,15.7-3.3,15.7-10c0-2.4-0.8-4.1-2.5-5.2
			c-1.6-1.1-4.3-1.6-7.9-1.6h-6.5C198.5,264.8,194.9,267.7,194.9,273.4z M197.9,239.3c0,3.1,0.9,5.5,2.8,7.2
			c1.9,1.7,4.4,2.5,7.5,2.5c3.3,0,5.9-0.8,7.6-2.5c1.8-1.7,2.7-4.1,2.7-7.3c0-3.4-0.9-5.9-2.7-7.6c-1.8-1.7-4.4-2.5-7.6-2.5
			c-3.2,0-5.7,0.9-7.5,2.7S197.9,236,197.9,239.3z"/>
		<path fill="#C8DAF1" d="M259.4,266.7v-25.8c0-4-0.8-6.9-2.5-8.7c-1.7-1.8-4.3-2.7-7.8-2.7c-4.8,0-8.2,1.2-10.5,3.6
			s-3.3,6.3-3.3,11.7v22h-3.6v-39.8h3.1l0.7,5.5h0.2c2.6-4.2,7.2-6.2,13.8-6.2c9,0,13.5,4.8,13.5,14.5v26H259.4z"/>
	</g>
	<g>
		<path d="M77.6,144.7h-3.7V91.1h29.3v3.4H77.6v22.7h24.2v3.5H77.6V144.7z"/>
		<path d="M108.2,93.8c0-2.3,0.8-3.5,2.3-3.5c0.8,0,1.3,0.3,1.8,0.9c0.4,0.6,0.6,1.5,0.6,2.6c0,1.1-0.2,2-0.6,2.6
			c-0.4,0.6-1,1-1.8,1C109,97.4,108.2,96.2,108.2,93.8z M112.4,144.7h-3.6v-39.8h3.6V144.7z"/>
		<path d="M146.8,144.7v-25.8c0-4-0.8-6.9-2.5-8.7s-4.3-2.7-7.8-2.7c-4.8,0-8.2,1.2-10.5,3.6s-3.3,6.3-3.3,11.7v22H119v-39.8h3.1
			l0.7,5.5h0.2c2.6-4.2,7.2-6.2,13.8-6.2c9,0,13.5,4.8,13.5,14.5v26H146.8z"/>
		<path d="M185.4,144.7v-25.8c0-4-0.8-6.9-2.5-8.7c-1.7-1.8-4.3-2.7-7.8-2.7c-4.8,0-8.2,1.2-10.5,3.6s-3.3,6.3-3.3,11.7v22h-3.6
			v-39.8h3.1l0.7,5.5h0.2c2.6-4.2,7.2-6.2,13.8-6.2c9,0,13.6,4.8,13.6,14.5v26H185.4z"/>
		<path d="M112.7,205.7h-3.8v-26.3H77.6v26.3h-3.7v-53.5h3.7v23.8h31.3v-23.8h3.8V205.7z"/>
		<path d="M152,185.7c0,6.5-1.6,11.6-4.7,15.2s-7.5,5.5-13,5.5c-3.5,0-6.6-0.8-9.2-2.5c-2.7-1.7-4.7-4.1-6.1-7.3
			c-1.4-3.2-2.1-6.8-2.1-10.9c0-6.5,1.6-11.6,4.7-15.2c3.1-3.6,7.5-5.4,13-5.4c5.5,0,9.8,1.8,12.9,5.5
			C150.5,174.3,152,179.3,152,185.7z M120.6,185.7c0,5.5,1.2,9.7,3.6,12.8s5.8,4.6,10.2,4.6s7.8-1.5,10.2-4.6
			c2.4-3.1,3.6-7.3,3.6-12.8c0-5.5-1.2-9.8-3.6-12.8c-2.4-3-5.8-4.5-10.2-4.5s-7.8,1.5-10.2,4.5
			C121.8,175.9,120.6,180.2,120.6,185.7z"/>
		<path d="M173.1,165.1c2.9,0,5.4,0.5,7.5,1.6c2.1,1,4,2.8,5.6,5.4h0.2c-0.1-3.1-0.2-6.1-0.2-9v-14.3h3.6v57h-2.4l-0.9-6.1h-0.3
			c-3,4.5-7.4,6.8-13,6.8c-5.5,0-9.7-1.7-12.6-5.1c-2.9-3.4-4.4-8.4-4.4-14.9c0-6.9,1.4-12.1,4.3-15.8
			C163.4,166.9,167.6,165.1,173.1,165.1z M173.1,168.4c-4.3,0-7.6,1.5-9.8,4.6c-2.2,3.1-3.3,7.5-3.3,13.3c0,11.3,4.4,16.9,13.1,16.9
			c4.5,0,7.8-1.3,9.9-3.9s3.1-6.9,3.1-12.9v-0.6c0-6.2-1-10.6-3.1-13.3C181.1,169.7,177.7,168.4,173.1,168.4z"/>
		<path d="M228.5,165.9v2.5l-8.2,0.5c2.2,2.7,3.3,5.7,3.3,9c0,3.8-1.3,6.9-3.8,9.3c-2.6,2.4-6,3.6-10.3,3.6c-1.8,0-3.1-0.1-3.8-0.2
			c-1.4,0.8-2.5,1.6-3.3,2.7s-1.1,2.1-1.1,3.3c0,1.3,0.5,2.2,1.4,2.8c1,0.6,2.6,0.9,4.9,0.9h7c4.3,0,7.6,0.9,9.9,2.6
			c2.3,1.7,3.4,4.3,3.4,7.7c0,4.2-1.7,7.4-5.1,9.7c-3.4,2.3-8.3,3.4-14.6,3.4c-5,0-8.9-1-11.6-2.9c-2.7-1.9-4.1-4.6-4.1-8.1
			c0-2.7,0.8-5,2.5-6.8c1.7-1.8,4-3,6.9-3.7c-1.2-0.5-2.2-1.2-2.9-2.2c-0.7-0.9-1.1-2-1.1-3.2c0-2.7,1.7-5,5.1-7
			c-2.3-1-4.1-2.4-5.4-4.5c-1.3-2-1.9-4.4-1.9-7c0-4,1.3-7.2,3.8-9.6c2.5-2.4,5.9-3.6,10.2-3.6c2.6,0,4.6,0.3,6.1,0.8H228.5z
			 M196.2,212.4c0,5.5,4.1,8.2,12.2,8.2c10.4,0,15.7-3.3,15.7-10c0-2.4-0.8-4.1-2.5-5.2c-1.6-1.1-4.3-1.6-7.9-1.6h-6.5
			C199.9,203.8,196.2,206.7,196.2,212.4z M199.3,178.3c0,3.1,0.9,5.5,2.8,7.2c1.9,1.7,4.4,2.5,7.5,2.5c3.3,0,5.9-0.8,7.6-2.5
			c1.8-1.7,2.7-4.1,2.7-7.3c0-3.4-0.9-5.9-2.7-7.6c-1.8-1.7-4.4-2.5-7.6-2.5c-3.2,0-5.7,0.9-7.5,2.7S199.3,175,199.3,178.3z"/>
		<path d="M236,188.2l20.3-22.3h4.4l-15.7,17l17,22.8h-4.4l-15.1-20.1l-6.5,5.9v14.2h-3.6v-57h3.6v28.6l-0.3,10.9H236z"/>
		<path d="M264,154.8c0-2.3,0.8-3.5,2.3-3.5c0.8,0,1.3,0.3,1.8,0.9c0.4,0.6,0.6,1.5,0.6,2.6c0,1.1-0.2,2-0.6,2.6c-0.4,0.6-1,1-1.8,1
			C264.8,158.4,264,157.2,264,154.8z M268.2,205.7h-3.6v-39.8h3.6V205.7z"/>
		<path d="M303.2,205.7v-25.8c0-4-0.8-6.9-2.5-8.7c-1.7-1.8-4.3-2.7-7.8-2.7c-4.8,0-8.2,1.2-10.5,3.6s-3.3,6.3-3.3,11.7v22h-3.6
			v-39.8h3.1l0.7,5.5h0.2c2.6-4.2,7.2-6.2,13.8-6.2c9,0,13.5,4.8,13.5,14.5v26H303.2z"/>
		<path d="M114.5,241.4c0,9-2.4,15.8-7.1,20.4c-4.7,4.6-11.6,6.9-20.8,6.9H73.9v-53.5h14.5c8.5,0,15,2.2,19.5,6.7
			C112.3,226.3,114.5,232.8,114.5,241.4z M110.5,241.5c0-7.7-1.9-13.4-5.8-17.3c-3.9-3.9-9.6-5.8-17.2-5.8h-9.9v46.9h8.9
			C102.5,265.4,110.5,257.4,110.5,241.5z"/>
		<path d="M136.6,269.4c-5.8,0-10.3-1.8-13.5-5.3s-4.9-8.6-4.9-15c0-6.3,1.6-11.4,4.7-15.3c3.1-3.8,7.3-5.7,12.6-5.7
			c4.7,0,8.4,1.6,11.1,4.9s4.1,7.7,4.1,13.3v2.9H122c0,5.5,1.3,9.6,3.8,12.5s6.1,4.3,10.7,4.3c2.3,0,4.3-0.2,6-0.5
			c1.7-0.3,3.9-1,6.5-2.1v3.3c-2.2,1-4.3,1.6-6.2,2S138.9,269.4,136.6,269.4z M135.5,231.3c-3.8,0-6.9,1.3-9.2,3.8
			c-2.3,2.5-3.7,6.2-4.1,10.9h24.6c0-4.6-1-8.2-3-10.8C141.8,232.6,139.1,231.3,135.5,231.3z"/>
		<path d="M181.9,258.3c0,3.6-1.4,6.3-4.1,8.2c-2.7,1.9-6.6,2.9-11.5,2.9c-5.3,0-9.5-0.8-12.7-2.5V263c4,2,8.2,3,12.7,3
			c3.9,0,6.9-0.7,9-2c2-1.3,3.1-3,3.1-5.2c0-2-0.8-3.7-2.4-5.1s-4.3-2.7-8-4c-4-1.4-6.8-2.7-8.4-3.7s-2.8-2.2-3.6-3.5
			c-0.8-1.3-1.2-2.9-1.2-4.8c0-3,1.3-5.3,3.8-7.1c2.5-1.7,6-2.6,10.5-2.6c4.3,0,8.4,0.8,12.2,2.4l-1.4,3.3
			c-3.9-1.6-7.5-2.4-10.9-2.4c-3.2,0-5.8,0.5-7.7,1.6s-2.9,2.6-2.9,4.5c0,2.1,0.7,3.7,2.2,5s4.4,2.6,8.7,4.2
			c3.6,1.3,6.2,2.5,7.8,3.5c1.6,1,2.9,2.2,3.7,3.5S181.9,256.5,181.9,258.3z"/>
		<path d="M186.1,217.8c0-2.3,0.8-3.5,2.3-3.5c0.8,0,1.3,0.3,1.8,0.9s0.6,1.5,0.6,2.6c0,1.1-0.2,2-0.6,2.6s-1,1-1.8,1
			C186.8,221.4,186.1,220.2,186.1,217.8z M190.2,268.7h-3.6v-39.8h3.6V268.7z"/>
		<path d="M227.8,228.9v2.5l-8.2,0.5c2.2,2.7,3.3,5.7,3.3,9c0,3.8-1.3,6.9-3.8,9.3c-2.6,2.4-6,3.6-10.3,3.6c-1.8,0-3.1-0.1-3.8-0.2
			c-1.4,0.8-2.5,1.6-3.3,2.7s-1.1,2.1-1.1,3.3c0,1.3,0.5,2.2,1.4,2.8c1,0.6,2.6,0.9,4.9,0.9h7c4.3,0,7.6,0.9,9.9,2.6
			c2.3,1.7,3.4,4.3,3.4,7.7c0,4.2-1.7,7.4-5.1,9.7c-3.4,2.3-8.3,3.4-14.6,3.4c-5,0-8.9-1-11.6-2.9c-2.7-1.9-4.1-4.6-4.1-8.1
			c0-2.7,0.8-5,2.5-6.8c1.7-1.8,4-3,6.9-3.7c-1.2-0.5-2.2-1.2-2.9-2.2c-0.7-0.9-1.1-2-1.1-3.2c0-2.7,1.7-5,5.1-7
			c-2.3-1-4.1-2.4-5.4-4.5c-1.3-2-1.9-4.4-1.9-7c0-4,1.3-7.2,3.8-9.6c2.5-2.4,5.9-3.6,10.2-3.6c2.6,0,4.6,0.3,6.1,0.8H227.8z
			 M195.5,275.4c0,5.5,4.1,8.2,12.2,8.2c10.4,0,15.7-3.3,15.7-10c0-2.4-0.8-4.1-2.5-5.2c-1.6-1.1-4.3-1.6-7.9-1.6h-6.5
			C199.2,266.8,195.5,269.7,195.5,275.4z M198.6,241.3c0,3.1,0.9,5.5,2.8,7.2c1.9,1.7,4.4,2.5,7.5,2.5c3.3,0,5.9-0.8,7.6-2.5
			c1.8-1.7,2.7-4.1,2.7-7.3c0-3.4-0.9-5.9-2.7-7.6c-1.8-1.7-4.4-2.5-7.6-2.5c-3.2,0-5.7,0.9-7.5,2.7S198.6,238,198.6,241.3z"/>
		<path d="M260,268.7v-25.8c0-4-0.8-6.9-2.5-8.7c-1.7-1.8-4.3-2.7-7.8-2.7c-4.8,0-8.2,1.2-10.5,3.6s-3.3,6.3-3.3,11.7v22h-3.6v-39.8
			h3.1l0.7,5.5h0.2c2.6-4.2,7.2-6.2,13.8-6.2c9,0,13.5,4.8,13.5,14.5v26H260z"/>
	</g>
</g>
</svg>
